<?xml version="1.0" encoding="utf-8"?>
<!-- Generator: Adobe Illustrator 16.0.0, SVG Export Plug-In . SVG Version: 6.00 Build 0)  -->
<!DOCTYPE svg PUBLIC "-//W3C//DTD SVG 1.1//EN" "http://www.w3.org/Graphics/SVG/1.1/DTD/svg11.dtd">
<svg version="1.1" xmlns="http://www.w3.org/2000/svg" xmlns:xlink="http://www.w3.org/1999/xlink" x="0px" y="0px" width="60px"
	 height="60px" viewBox="0 0 60 60" enable-background="new 0 0 60 60" xml:space="preserve">
<g id="Layer_4">
</g>
<g id="Layer_5">
</g>
<g id="Layer_1">
	<circle fill="none" stroke="#E85858" stroke-width="2" stroke-miterlimit="10" cx="30" cy="30" r="28.5"/>
</g>
<g id="Layer_2">
	<g>
		<path fill="#E85858" d="M38.424,34.001c0,4.651-3.771,8.423-8.424,8.423s-8.424-3.771-8.424-8.423
			c0-2.919,1.484-5.489,3.738-7.001H14v12.404C14,43.047,16.953,46,20.596,46h17.809C42.047,46,45,43.047,45,39.404V27H34.686
			C36.939,28.512,38.424,31.082,38.424,34.001z"/>
		<path fill="#E85858" d="M38.404,15H24v8h-2v-8h-1v8h-2v-7.797c-0.344,0.085-0.68,0.192-1,0.33V23h-2v-6.13
			c-1.232,1.198-2,2.871-2,4.726V25h31v-3.404C45,17.953,42.047,15,38.404,15z M42,22.2c0,0.441-0.358,0.8-0.8,0.8h-2.4
			c-0.441,0-0.8-0.358-0.8-0.8v-2.4c0-0.441,0.358-0.8,0.8-0.8h2.4c0.441,0,0.8,0.358,0.8,0.8V22.2z"/>
	</g>
	<circle fill="#E85858" cx="30" cy="34" r="5.5"/>
</g>
</svg>
