<?xml version="1.0" encoding="utf-8"?>
<!-- Generator: Adobe Illustrator 16.0.0, SVG Export Plug-In . SVG Version: 6.00 Build 0)  -->
<!DOCTYPE svg PUBLIC "-//W3C//DTD SVG 1.1//EN" "http://www.w3.org/Graphics/SVG/1.1/DTD/svg11.dtd">
<svg version="1.1" id="Layer_1" xmlns="http://www.w3.org/2000/svg" xmlns:xlink="http://www.w3.org/1999/xlink" x="0px" y="0px"
	 width="60px" height="60px" viewBox="0 0 60 60" enable-background="new 0 0 60 60" xml:space="preserve">
<g>
	<polyline fill="#E85858" points="42.532,23.029 42.558,23.695 41.703,23.469 42.532,23.029 	"/>
	<path fill="#E85858" d="M46.154,19.475c0,0-2.293,0.655-3.029,0.164c0,0,1.766-0.941,2.12-2.903c0,0-4.79,1.688-5.636,1.307
		l0.016,0.001c-1.091-0.754-2.404-1.199-3.831-1.199c-3.733,0-6.755,3.026-6.755,6.76c0,0.438,0.047,0.865,0.126,1.281l-0.122,0.081
		c0,0-8.451,0.164-14.392-7.086c0,0-1.825,5.396,2.263,9.076c0,0-1.962,0.164-3.188-0.817c0,0,0.491,5.887,5.315,6.705
		c0,0-1.39,0.817-3.107,0c0,0,3.107,5.806,6.214,4.988c0,0-1.39,3.188-9.077,3.107c0,0,25.2,10.923,29.398-14.753l0.089-2.492
		c0.001-0.029-0.274-0.059-0.274-0.09c0-0.033-0.283-0.064-0.283-0.098v-0.109C42,23.398,45.01,21.438,46.154,19.475z"/>
</g>
<circle fill="none" stroke="#E85858" stroke-width="2" stroke-miterlimit="10" cx="30" cy="30" r="28.5"/>
</svg>
